<svg width="50" height="71" viewBox="0 0 50 71" fill="none" xmlns="http://www.w3.org/2000/svg">
<path d="M32.6477 0.181816H49.2841V48.4545C49.2614 52.9773 48.1818 56.9318 46.0455 60.3182C43.9091 63.6818 40.9545 66.2955 37.1818 68.1591C33.4318 70.0227 29.0909 70.9545 24.1591 70.9545C19.7955 70.9545 15.8295 70.1932 12.2614 68.6705C8.71591 67.1477 5.88636 64.7841 3.77273 61.5795C1.68182 58.375 0.647727 54.2727 0.670455 49.2727H17.4773C17.5455 51.0682 17.8864 52.6023 18.5 53.875C19.1364 55.125 20.0114 56.0682 21.125 56.7045C22.2386 57.3409 23.5682 57.6591 25.1136 57.6591C26.7273 57.6591 28.0909 57.3182 29.2045 56.6364C30.3182 55.9318 31.1591 54.8977 31.7273 53.5341C32.3182 52.1705 32.625 50.4773 32.6477 48.4545V0.181816Z" fill="white"/>
</svg>
