<svg width="29" height="88" viewBox="0 0 29 88" fill="none" xmlns="http://www.w3.org/2000/svg">
<path d="M27.9844 4.82812C27.9844 6.14062 27.5312 7.26562 26.625 8.20312C25.75 9.10937 24.5469 9.5625 23.0156 9.5625C21.5156 9.5625 20.3438 9.125 19.5 8.25C18.6875 7.34375 18.2812 6.375 18.2812 5.34375C18.2812 4.28125 18.4219 3.46875 18.7031 2.90625C18.9844 2.34375 19.3438 1.85938 19.7812 1.45312C20.75 0.609375 21.9219 0.1875 23.2969 0.1875C24.7031 0.1875 25.8281 0.625 26.6719 1.5C27.5469 2.375 27.9844 3.48437 27.9844 4.82812ZM12.7031 84C17.4844 84 19.875 77.7188 19.875 65.1562V34.0312C19.875 30.8438 19.6562 28.8594 19.2188 28.0781C18.7812 27.2656 18.25 26.7344 17.625 26.4844C17.0312 26.2031 16.0938 25.9688 14.8125 25.7812C13.5625 25.5625 12.9375 25.0625 12.9375 24.2812C12.9375 23.5625 13.5156 23.0938 14.6719 22.875C15.8594 22.625 16.8906 22.4062 17.7656 22.2188C18.6406 22 19.5 21.7656 20.3438 21.5156C22.1562 20.9531 23.5 20.4219 24.375 19.9219C25.7812 19.1406 26.8281 18.75 27.5156 18.75C28.2031 18.75 28.5469 19.1094 28.5469 19.8281C28.5469 20.1719 28.4844 20.5312 28.3594 20.9062C27.6406 23.0625 27.2812 27.3125 27.2812 33.6562V63.6094C27.2812 75.2344 24.1406 82.6406 17.8594 85.8281C15.8281 86.8594 13.8281 87.375 11.8594 87.375C9.92188 87.375 8.32812 87.2188 7.07812 86.9062C5.82812 86.625 4.71875 86.2188 3.75 85.6875C1.625 84.5312 0.5625 83.0781 0.5625 81.3281C0.5625 80.5781 0.9375 79.8906 1.6875 79.2656C2.4375 78.6406 3.26562 78.3281 4.17188 78.3281C5.04688 78.3281 5.78125 78.5469 6.375 78.9844C6.9375 79.4531 7.5 80.0938 8.0625 80.9062C8.625 81.75 9.04688 82.3594 9.32812 82.7344C9.64062 83.1094 9.9375 83.3906 10.2188 83.5781C10.5938 83.8594 11.125 84 11.8125 84H12.7031Z" fill="white"/>
</svg>